<?xml version="1.0" encoding="utf-8"?>
<!-- Generator: Adobe Illustrator 17.0.2, SVG Export Plug-In . SVG Version: 6.00 Build 0)  -->
<!DOCTYPE svg PUBLIC "-//W3C//DTD SVG 1.1//EN" "http://www.w3.org/Graphics/SVG/1.1/DTD/svg11.dtd">
<svg version="1.1" id="Icons" xmlns="http://www.w3.org/2000/svg" xmlns:xlink="http://www.w3.org/1999/xlink" x="0px" y="0px"
	 width="20.002px" height="20.002px" viewBox="0 0 20.002 20.002" enable-background="new 0 0 20.002 20.002" xml:space="preserve">
<g>
	<g>
		<path d="M10.002,8c1.102,0,2,0.897,2,2c0,1.102-0.898,2-2,2c-1.103,0-2-0.898-2-2C8.002,8.897,8.899,8,10.002,8 M10.002,6
			c-2.209,0-4,1.792-4,4c0,2.209,1.791,4,4,4s4-1.791,4-4C14.002,7.792,12.211,6,10.002,6L10.002,6z"/>
	</g>
	<g>
		<path d="M10.002,4c-0.553,0-1-0.447-1-1V1c0-0.553,0.447-1,1-1s1,0.447,1,1v2C11.002,3.553,10.555,4,10.002,4L10.002,4z"/>
	</g>
	<g>
		<path d="M14.952,6.051c-0.256,0-0.512-0.098-0.707-0.292c-0.391-0.392-0.391-1.024,0-1.415l1.414-1.414
			c0.391-0.391,1.023-0.391,1.414,0c0.391,0.391,0.391,1.023,0,1.414l-1.414,1.415C15.464,5.953,15.208,6.051,14.952,6.051
			L14.952,6.051z"/>
	</g>
	<g>
		<path d="M19.002,11.002h-2c-0.553,0-1-0.447-1-1s0.447-1,1-1h2c0.553,0,1,0.447,1,1S19.555,11.002,19.002,11.002L19.002,11.002z"
			/>
	</g>
	<g>
		<path d="M16.364,17.367c-0.256,0-0.512-0.1-0.707-0.295l-1.414-1.413c-0.391-0.392-0.391-1.024,0-1.413
			c0.391-0.391,1.023-0.391,1.414,0l1.414,1.413c0.391,0.392,0.391,1.024,0,1.413C16.876,17.268,16.62,17.367,16.364,17.367
			L16.364,17.367z"/>
	</g>
	<g>
		<path d="M9.999,20.002c-0.552,0-1-0.447-1-1v-2c0-0.553,0.448-1,1-1s1,0.447,1,1v2C10.999,19.555,10.551,20.002,9.999,20.002
			L9.999,20.002z"/>
	</g>
	<g>
		<path d="M3.635,17.363c-0.256,0-0.512-0.098-0.707-0.293c-0.391-0.391-0.391-1.023,0-1.414l1.414-1.414
			c0.391-0.391,1.023-0.391,1.414,0c0.391,0.391,0.391,1.024,0,1.414L4.342,17.07C4.147,17.266,3.891,17.363,3.635,17.363
			L3.635,17.363z"/>
	</g>
	<g>
		<path d="M3,10.998H1c-0.552,0-1-0.447-1-1s0.448-1,1-1h2c0.553,0,1,0.447,1,1C4,10.551,3.553,10.998,3,10.998L3,10.998z"/>
	</g>
	<g>
		<path d="M5.053,6.049c-0.256,0-0.512-0.098-0.707-0.293L2.932,4.343c-0.391-0.392-0.391-1.024,0-1.415s1.023-0.391,1.414,0
			L5.76,4.343c0.391,0.39,0.391,1.023,0,1.413C5.564,5.951,5.309,6.049,5.053,6.049L5.053,6.049z"/>
	</g>
</g>
</svg>
