<?xml version="1.0" encoding="utf-8"?>
<!-- Generator: Adobe Illustrator 17.0.2, SVG Export Plug-In . SVG Version: 6.00 Build 0)  -->
<!DOCTYPE svg PUBLIC "-//W3C//DTD SVG 1.1//EN" "http://www.w3.org/Graphics/SVG/1.1/DTD/svg11.dtd">
<svg version="1.1" id="Layer_1" xmlns="http://www.w3.org/2000/svg" xmlns:xlink="http://www.w3.org/1999/xlink" x="0px" y="0px"
	 width="16.704px" height="16.704px" viewBox="0 0 16.704 16.704" enable-background="new 0 0 16.704 16.704" xml:space="preserve">
<path fill="#010101" d="M10.473,8.353l5.792-5.792c0.586-0.586,0.586-1.536,0-2.121c-0.586-0.586-1.535-0.586-2.121,0L8.352,6.231
	L2.561,0.439c-0.586-0.586-1.535-0.586-2.121,0c-0.586,0.585-0.586,1.535,0,2.121l5.792,5.792l-5.792,5.791
	c-0.586,0.586-0.586,1.536,0,2.121c0.293,0.293,0.677,0.439,1.06,0.439c0.384,0,0.768-0.146,1.061-0.439l5.791-5.791l5.792,5.791
	c0.293,0.293,0.677,0.439,1.06,0.439c0.384,0,0.768-0.146,1.061-0.439c0.586-0.585,0.586-1.535,0-2.121L10.473,8.353z"/>
</svg>
