<?xml version="1.0" encoding="utf-8"?>
<!-- Generator: Adobe Illustrator 17.0.2, SVG Export Plug-In . SVG Version: 6.00 Build 0)  -->
<!DOCTYPE svg PUBLIC "-//W3C//DTD SVG 1.1//EN" "http://www.w3.org/Graphics/SVG/1.1/DTD/svg11.dtd">
<svg version="1.1" id="Your_Icon" xmlns="http://www.w3.org/2000/svg" xmlns:xlink="http://www.w3.org/1999/xlink" x="0px" y="0px"
	 width="100px" height="100px" viewBox="0 0 100 100" enable-background="new 0 0 100 100" xml:space="preserve">
<g>
	<path fill="none" stroke="#546475" stroke-width="2" stroke-miterlimit="10" d="M55.656,82c-0.231-1.94-0.696-3.955-1.412-5.973
		c-3.197-9.012-12.841-0.646-16.361-11.643c3.314-2.332,6.006-6.405,7.566-11.027c0.053,0.017,0.107,0.032,0.162,0.041
		c1.233,0.198,2.588-1.858,3.029-4.594c0.44-2.735-0.202-5.114-1.435-5.312c-0.101-0.017-0.202-0.016-0.305-0.002
		c-0.093-1.995-0.432-3.873-0.982-5.6c0.286-0.773,0.457-1.792,0.492-3.112c0.102-3.877-3.759-11.361-13.389-12.297
		c-6.372-0.619-12.703,3.017-12.814,6.894c-0.01,0.381,0.024,0.755,0.1,1.122c-0.208-0.183-0.438-0.298-0.689-0.332
		c-1.411-0.19-2.9,2.216-3.379,5.768c-0.34,2.521-0.123,5.262,0.537,6.708c-0.025,0.304-0.044,0.61-0.058,0.919
		c-0.196-0.074-0.393-0.099-0.588-0.068c-1.232,0.198-1.874,2.577-1.434,5.312c0.441,2.736,1.796,4.792,3.029,4.594
		c0.145-0.023,0.281-0.077,0.409-0.159c1.453,4.364,3.912,8.25,6.955,10.659c-3.397,11.688-13.261,2.969-16.502,12.104
		C7.868,78.028,7.401,80.052,7.171,82H55.656z"/>
	<path fill="none" stroke="#546475" stroke-width="2" stroke-miterlimit="10" d="M53.018,68.544
		c1.997,0.922,3.714,2.688,4.811,6.527c0.665,2.329,1.153,4.653,1.475,6.929h37.119c0.044-2.87-0.463-6.019-1.584-9.175
		c-2.947-8.306-11.369-1.851-15.428-9.396c2.756-2.405,4.986-6.028,6.352-10.071c0.052,0.017,0.105,0.032,0.16,0.041
		c1.232,0.198,2.589-1.858,3.029-4.594c0.44-2.735-0.202-5.114-1.435-5.312c-0.101-0.017-0.203-0.016-0.305-0.002
		c-0.018-0.371-0.043-0.737-0.077-1.099c0.157-1.205,0.146-2.695-0.078-4.347c-0.076-0.563-0.176-1.128-0.292-1.687
		c-0.365-1.113-0.728-2.402-0.886-3.787C85.535,29.575,86,27.177,86,25.91v-0.002l0.082-0.026c0.049-0.125,0.138-0.238,0.195-0.34
		l0.373-0.759c-0.928,0.632-3.459,0.806-6.362,0.362c-0.278-0.042-0.546-0.09-0.812-0.141c-2.108-0.643-4.698-1.022-7.503-1.022
		c-7.065,0-11.457,2.166-12.793,5.377c-0.64,1.538-1.033,2.777-1.218,3.769c-0.338,0.984-0.611,2.151-0.786,3.448
		c-0.268,1.983-0.278,4.078-0.059,5.735c-0.04,0.412-0.069,0.829-0.088,1.25c-0.196-0.074-0.394-0.099-0.587-0.068
		c-1.232,0.198-1.875,2.577-1.435,5.312c0.44,2.736,1.796,4.792,3.028,4.594c0.146-0.023,0.281-0.077,0.409-0.159
		c1.335,4.01,3.52,7.616,6.226,10.044C61.834,68.723,56.791,67.088,53.018,68.544z"/>
</g>
</svg>
